<svg xmlns="http://www.w3.org/2000/svg" width="1618.46" height="618.08" viewBox="0 0 1618.46 618.08"><g id="Group_3" data-name="Group 3" transform="translate(351 -531)"><path id="Path_11" data-name="Path 11" d="M61.632,0C79.92,0,89.568-11.52,89.568-25.92c0-12.1-8.208-22.032-18.432-23.616,9.072-1.872,16.56-9.936,16.56-22.032,0-12.816-9.36-24.48-27.648-24.48H9.5V0ZM55.584-57.6H29.952V-78.48H55.584c6.912,0,11.232,4.464,11.232,10.512S62.5-57.6,55.584-57.6Zm.72,39.888H29.952v-22.32H56.3c8.064,0,12.384,5.184,12.384,11.232C68.688-21.888,64.08-17.712,56.3-17.712ZM166.032,0V-18H125.424V-96.048H104.976V0ZM221.9,1.728c29.088,0,50.256-20.736,50.256-49.68s-21.168-49.68-50.256-49.68c-28.944,0-50.112,20.736-50.112,49.68S192.96,1.728,221.9,1.728Zm0-18.144c-17.712,0-29.088-13.68-29.088-31.536,0-18,11.376-31.536,29.088-31.536s29.232,13.536,29.232,31.536C251.136-30.1,239.616-16.416,221.9-16.416ZM333.072,1.728c21.168,0,33.264-11.664,40.176-23.616l-17.568-8.5a25.754,25.754,0,0,1-22.608,13.968c-17.424,0-30.1-13.392-30.1-31.536s12.672-31.536,30.1-31.536A26.031,26.031,0,0,1,355.68-65.52l17.568-8.64c-6.768-11.952-19.008-23.472-40.176-23.472-28.8,0-51.12,20.16-51.12,49.68S304.272,1.728,333.072,1.728ZM467.712,0,426.96-50.976l38.16-45.072h-25.2L405.936-53.136V-96.048H385.488V0h20.448V-29.52l7.488-8.928L442.512,0Zm49.1,1.728c21.168,0,33.264-11.664,40.176-23.616l-17.568-8.5a25.755,25.755,0,0,1-22.608,13.968c-17.424,0-30.1-13.392-30.1-31.536s12.672-31.536,30.1-31.536A26.031,26.031,0,0,1,539.424-65.52l17.568-8.64c-6.768-11.952-19.008-23.472-40.176-23.472-28.8,0-51.12,20.16-51.12,49.68S488.016,1.728,516.816,1.728ZM655.632,0V-96.048H635.04V-58.32H589.68V-96.048H569.232V0H589.68V-40.32h45.36V0ZM764.064,0,727.056-96.048H701.424L664.272,0H687.6l6.048-16.272h41.184L740.736,0ZM729.216-34.272H699.264L714.24-75.6ZM793.44,0V-96.048H772.992V0ZM898.416,0V-96.048H877.968v60.336l-44.5-60.336H812.448V0H832.9V-62.64L878.688,0Z" transform="translate(296.18 734.07)" fill="#036"></path><path id="Path_10" data-name="Path 10" d="M29.952,0V-96.048H9.5V0ZM134.928,0V-96.048H114.48v60.336l-44.5-60.336H48.96V0H69.408V-62.64L115.2,0ZM196.7,0V-78.048H224.64v-18H148.032v18h28.08V0ZM305.712,0V-18h-47.52V-39.744H304.7v-18H258.192v-20.3h47.52v-18H237.744V0Zm77.04,0V-18H342.144V-96.048H321.7V0Zm75.312,0V-18H417.456V-96.048H397.008V0Zm34.7,0V-96.048H472.32V0Zm65.52,1.872a53.311,53.311,0,0,0,40.9-18.144V-53.136H553.392V-35.28h25.344v11.52c-3.888,3.6-11.952,7.344-20.448,7.344-17.424,0-30.1-13.392-30.1-31.536s12.672-31.536,30.1-31.536A27.2,27.2,0,0,1,581.04-66.96l16.992-9.216c-7.2-11.376-19.728-21.456-39.744-21.456-28.08,0-51.12,19.3-51.12,49.68C507.168-17.712,530.208,1.872,558.288,1.872ZM683.424,0V-18H635.9V-39.744h46.512v-18H635.9v-20.3h47.52v-18H615.456V0ZM785.376,0V-96.048H764.928v60.336l-44.5-60.336H699.408V0h20.448V-62.64L765.648,0ZM850.9,1.728c21.168,0,33.264-11.664,40.176-23.616l-17.568-8.5A25.755,25.755,0,0,1,850.9-16.416c-17.424,0-30.1-13.392-30.1-31.536s12.672-31.536,30.1-31.536A26.031,26.031,0,0,1,873.5-65.52l17.568-8.64C884.3-86.112,872.064-97.632,850.9-97.632c-28.8,0-51.12,20.16-51.12,49.68S822.1,1.728,850.9,1.728ZM971.28,0V-18H923.76V-39.744h46.512v-18H923.76v-20.3h47.52v-18H903.312V0Z" transform="translate(296.18 906.44)" fill="#036"></path><path id="Path_9" data-name="Path 9" d="M56.016,1.872a53.311,53.311,0,0,0,40.9-18.144V-53.136H51.12V-35.28H76.464v11.52c-3.888,3.6-11.952,7.344-20.448,7.344-17.424,0-30.1-13.392-30.1-31.536s12.672-31.536,30.1-31.536A27.2,27.2,0,0,1,78.768-66.96L95.76-76.176c-7.2-11.376-19.728-21.456-39.744-21.456-28.08,0-51.12,19.3-51.12,49.68C4.9-17.712,27.936,1.872,56.016,1.872ZM190.944,0l-21.6-36.576c10.368-2.448,21.024-11.52,21.024-28.512,0-17.856-12.24-30.96-32.256-30.96H113.184V0h20.448V-34.128h14.976L167.472,0ZM155.088-52.128H133.632v-25.92h21.456c8.208,0,14.4,4.9,14.4,12.96S163.3-52.128,155.088-52.128ZM251.28,1.728c29.088,0,50.256-20.736,50.256-49.68s-21.168-49.68-50.256-49.68c-28.944,0-50.112,20.736-50.112,49.68S222.336,1.728,251.28,1.728Zm0-18.144c-17.712,0-29.088-13.68-29.088-31.536,0-18,11.376-31.536,29.088-31.536s29.232,13.536,29.232,31.536C280.512-30.1,268.992-16.416,251.28-16.416Zm108,18.144c29.232,0,43.344-16.272,43.344-40.176v-57.6h-20.88v57.024c0,13.392-7.632,22.608-22.464,22.608s-22.608-9.216-22.608-22.608V-96.048H315.936V-38.3C315.936-14.688,330.048,1.728,359.28,1.728ZM441.936,0V-34.128h24.48c20.736,0,32.256-14.256,32.256-30.96,0-16.848-11.376-30.96-32.256-30.96H421.488V0ZM463.68-52.128H441.936v-25.92H463.68c8.064,0,14.112,4.9,14.112,12.96C477.792-57.168,471.744-52.128,463.68-52.128Z" transform="translate(296.18 1078.81)" fill="#036"></path><g id="Group_2" data-name="Group 2"><path id="Path_5" data-name="Path 5" d="M380.71,433.91,268.55,369.16l-33.96,19.61-.04,76.38,34-19.61,45.99,26.56v53.08l-45.99,26.56L222.6,525.18l-.03-178.69L424.11,218.28l.54-.32,158.64,78.61L424.65,190.96,222.56,307.6v-.02l-66.13,38.1V563.37l112.12,64.75,112.16-64.75Z" transform="translate(-507.43 340.04)" fill="#036"></path><path id="Path_6" data-name="Path 6" d="M583.29,368.99,471.18,433.74V563.19l112.11,64.75,33.96-19.61.05-76.38-34.01,19.61L537.31,525V471.93l45.98-26.56,45.99,26.56v143L425.94,782.08l-157.21-77.8L425.94,809.04,575.28,722.6l-.01.03,120.14-69.51V433.74Z" transform="translate(-507.43 340.04)" fill="#036"></path><path id="Path_7" data-name="Path 7" d="M452.86,430.39l-26.92-15.51-26.87,15.51,26.87,15.47Z" transform="translate(-507.43 340.04)" fill="#036"></path><path id="Path_8" data-name="Path 8" d="M392.97,563.32l32.97,19.03,32.94-19.03-.14-122.45-32.8,18.98-32.97-18.98Z" transform="translate(-507.43 340.04)" fill="#036"></path></g></g></svg>